<svg height='100px' width='100px'  fill="#FFFFFF" xmlns="http://www.w3.org/2000/svg" xmlns:xlink="http://www.w3.org/1999/xlink" version="1.1" x="0px" y="0px" viewBox="0 0 128 128" style="enable-background:new 0 0 128 128;" xml:space="preserve"><path d="M78.9,116.3c4.7,0,8.5-3.8,8.5-8.5c0-4.7-3.8-8.5-8.5-8.5c-4.7,0-8.5,3.8-8.5,8.5C70.4,112.4,74.2,116.3,78.9,116.3z   M78.9,101.2c3.6,0,6.5,2.9,6.5,6.5c0,3.6-2.9,6.5-6.5,6.5c-3.6,0-6.5-2.9-6.5-6.5C72.4,104.1,75.3,101.2,78.9,101.2z"></path><path d="M11.9,107.7c0,4.7,3.8,8.5,8.5,8.5c4.7,0,8.5-3.8,8.5-8.5c0-4.7-3.8-8.5-8.5-8.5C15.7,99.2,11.9,103,11.9,107.7z   M26.9,107.7c0,3.6-2.9,6.5-6.5,6.5c-3.6,0-6.5-2.9-6.5-6.5c0-3.6,2.9-6.5,6.5-6.5C24,101.2,26.9,104.1,26.9,107.7z"></path><path d="M118,68.3V10c0-0.1,0-0.1,0-0.2c-0.1-2.3-1.1-4.5-3-6.2l-1.6-1.4c-1.7-1.5-3.8-2.2-5.9-2.2c-2.3,0-4.7,0.9-6.4,2.7  L61.8,43.5L25.5,38c-4.7,0-8.5,3.8-8.5,8.5V78h9v10h-6C9,88,0,97,0,108s9,20,20,20h60c11,0,20-9,20-20s-9-20-20-20h-6V78h9V58.7  l31-40.2V70c0,1.1,0.9,2,2,2c0,0,0.1,0,0.1,0c4.5,0.6,7.9,4.4,7.9,9c0,5-4.1,9-9.1,9c-4.3,0-8.1-3-8.9-7.2c-0.2-1.1-1.3-1.8-2.4-1.6  c-1.1,0.2-1.8,1.3-1.6,2.4c1.2,6,6.6,10.4,12.8,10.4c7.2,0,13.1-5.9,13.1-13C128,74.9,123.8,69.7,118,68.3z M98.8,31.6l-2.7,3.5  L87,35.4L87.1,23c0,0,0,0,0,0l3-3.1l9.3,0.1L98.8,31.6z M101.3,20l6.5,0l-6.8,8.9L101.3,20z M94.6,37.2l-7.6,9.9l0.1-9.7L94.6,37.2z   M85,35.5l-10.3,0.4l10.3-10.8L85,35.5z M91.9,17.9l7.8-8.1L99.4,18L91.9,17.9z M80,92c8.8,0,16,7.2,16,16s-7.2,16-16,16H20  c-8.8,0-16-7.2-16-16s7.2-16,16-16H80z M70,88H30V78h40V88z M79,74H21V46.5c0-2.4,1.9-4.4,4.3-4.5l48.6,7.4l0.3,0h0.3  c2.5,0,4.5,2,4.5,4.5V74z M74.5,45.5l-7.9-1.2l6.2-6.4c0.1,0,0.1,0,0.2,0c0,0,0,0,0,0L85,37.5l-0.1,12.2l-2.1,2.7  C82.1,48.4,78.6,45.5,74.5,45.5z M112.9,13.3L112.9,13.3L112.9,13.3l-3.6,4.7l-7.9-0.1l0.4-10.4l2.1-2.2c0.9-0.9,2.2-1.5,3.6-1.5  c1.2,0,2.4,0.4,3.3,1.2l1.6,1.4C114.3,8.3,114.6,11.3,112.9,13.3z"></path><path d="M39.1,108.7h22c0.6,0,1-0.4,1-1c0-0.6-0.4-1-1-1h-22c-0.6,0-1,0.4-1,1C38.1,108.3,38.6,108.7,39.1,108.7z"></path></svg>