<svg height="474pt" viewBox="-13 0 474 474.00391" width="474pt" xmlns="http://www.w3.org/2000/svg"><path d="m90.066406 325.074219h350.261719v70h-432.640625v-70zm0 0" fill="#00acea"/><path d="m357.945312 90.882812h82.382813v234.191407h-82.382813zm0 0" fill="#fedb41"/><path d="m357.945312 90.882812v234.191407h-47.699218v-277.671875h47.699218zm0 0" fill="#00efd1"/><path d="m350.90625 17.5625-.289062 29.839844h-33.039063v-29.578125zm0 0" fill="#fedb41"/><path d="m248.996094 157.0625 1.648437-66.199219h.011719l.761719.019531h58.828125v234.191407h-65.449219zm0 0" fill="#fedb41"/><path d="m284.007812 395.074219 20 71.328125h-160l20-71.328125zm0 0" fill="#00efd1"/><path d="m269.847656 7.605469-19.082031 78.660156h-56.089844l-17.949219-78.660156zm0 0" fill="#fedb41"/><path d="m194.796875 90.882812-.121094-4.617187h56.089844l-.109375 4.597656h-.011719l-1.648437 66.199219h-52.550782zm0 0" fill="#00acea"/><path d="m248.996094 157.0625-4.199219 168.011719h-44.152344l-4.199219-168.011719zm0 0" fill="#00efd1"/><path d="m196.445312 157.0625 4.199219 168.011719h-53.058593v-234.191407h47.210937zm0 0" fill="#fedb41"/><path d="m147.585938 90.882812v234.191407h-57.519532v-243.398438h57.519532zm0 0" fill="#00efd1"/><path d="m118.828125 18.582031 28.757813 63.09375h-57.519532zm0 0" fill="#fedb41"/><path d="m7.6875 90.882812h82.378906v234.191407h-82.378906zm0 0" fill="#fedb41"/><path d="m7.6875 403.003906h145.765625l-15.511719 55h-27.464844c-4.417968 0-8 3.582032-8 8 0 4.417969 3.582032 8 8 8h227.058594c4.417969 0 8-3.582031 8-8 0-4.417968-3.582031-8-8-8h-27.464844l-15.511718-55h145.769531c2.078125.003906 4.074219-.839844 5.519531-2.335937 1.449219-1.496094 2.226563-3.515625 2.160156-5.59375v-304.191407c.066407-2.074218-.714843-4.085937-2.164062-5.574218-1.449219-1.488282-3.441406-2.320313-5.515625-2.304688h-74.320313v-35.601562c-.015624-4.132813-3.167968-7.578125-7.285156-7.960938l.203125-21.800781c.015625-2.144531-.828125-4.210937-2.347656-5.726563-1.523437-1.511718-3.582031-2.355468-5.726563-2.351562l-33.117187.261719c-2.089844.023437-4.082031.882812-5.53125 2.386719-1.453125 1.503906-2.242187 3.523437-2.195313 5.613281v21.613281c-5 .339844-8 3.773438-8 7.964844v17.117187l-5.511718-.074219c-4.507813-.0625-8.859375 1.667969-12.097656 4.808594-2.804688 2.734375-4.386719 6.484375-4.390626 10.398438v3.351562h-20.191406l17.800782-73.453125c.578124-2.332031.027343-4.796875-1.484376-6.660156-1.535156-1.886719-3.859374-2.9492188-6.285156-2.88671875h-93.121094c-2.40625-.07421875-4.714843.96093775-6.253906 2.81249975-1.519531 1.886719-2.085937 4.367188-1.546875 6.726563l16.773438 73.460937h-29.691407v-1.328125c-.074218-1.160156-.390624-2.292969-.933593-3.320312l-28.863281-63.089844c-1.316407-2.855469-4.175782-4.679687-7.320313-4.679687-3.140625 0-6 1.824218-7.316406 4.679687l-28.800781 63.089844c-.488282 1.039062-.75 2.171875-.765626 3.320312v1.328125h-74.320312c-2.078125-.015625-4.070312.816406-5.519531 2.304688-1.449219 1.488281-2.230469 3.5-2.1601565 5.574218v304.191407c-.0703125 2.078125.7070315 4.097656 2.1562495 5.59375 1.449219 1.496093 3.441407 2.339843 5.523438 2.335937zm285.765625 55h-138.898437l15.511718-55h107.871094zm138.554687-359v218h-66v-218zm-114-44h32v262h-32zm25.035157-29.578125-.347657 13.578125h-16.6875v-13.242187zm-47.035157 55.058594c0-.027344.136719-.054687.277344-.042969l5.722656.082032v2.480468h-6zm-8 64.480469c4.417969 0 8-3.582032 8-8v-37.960938h6v218h-49.007812l5.449219-218h21.558593v37.960938c0 4.417968 3.582032 8 8 8zm-85.125-50.960938h39.675782l-1.367188 55h-36.9375zm5.5625 223-3.796874-152h36.136718l-3.800781 152zm51.226563-301-15.011719 61.699219 4.214844-29.617187c.628906-4.382813-2.40625-8.449219-6.785156-9.097657-2.101563-.3125-4.234375.226563-5.933594 1.496094s-2.824219 3.164063-3.121094 5.265625l-3.027344 21.183594v-19.929688c0-4.417968-3.582031-8-8-8-4.417968 0-8 3.582032-8 8v13.839844l-2.160156-15.121094c-.625-4.375-4.679687-7.414062-9.050781-6.789062-4.375.625-7.414063 4.675781-6.789063 9.050781l3.113282 21.988281-12.363282-53.96875zm-72.683594 83 5.457031 218h-36.4375v-218zm-88.980469-9h42v227h-42zm20.820313-51.800781 16.320313 35.800781h-32.640626zm-102.820313 60.800781h66v218h-66zm416 234v54h-416v-54zm0 0" fill="#083863"/></svg>