<svg id="Layer_3" enable-background="new 0 0 64 64" height="512" viewBox="0 0 64 64" width="512" xmlns="http://www.w3.org/2000/svg"><path d="m56 54v4c0 2.21-1.79 4-4 4h-46c-2.21 0-4-1.79-4-4v-4h2 17l1 4h14l1-4h17z" fill="#969faa"/><path d="m37 54-1 4h-14l-1-4z" fill="#fcd770"/><path d="m8 16c-2.21 0-4 1.79-4 4v34h17 16 17v-38z" fill="#ccd1d9"/><path d="m9 20c-.55 0-1 .45-1 1v28c0 .55.45 1 1 1h40c.55 0 1-.45 1-1v-29z" fill="#69d6f4"/><path d="m32 38v8h-20v-12h14v4z" fill="#ff826e"/><path d="m46 26v12h-14-6v-4-8h12z" fill="#fcd770"/><path d="m56 14c0-4.42-3.58-8-8-8-1.38 0-2.68.35-3.81.97l-.07-.12c-1.98-2.93-5.32-4.85-9.12-4.85-6.08 0-11 4.92-11 11 0 .34.02.67.05 1h-.01c-.01 0-.03 0-.04 0-1.77 0-3.37.77-4.46 2-.96 1.06-1.54 2.46-1.54 4 0 3.31 2.69 6 6 6h2 12 8 4 4 2c3.31 0 6-2.69 6-6s-2.69-6-6-6z" fill="#e6e9ed"/><path d="m9 57h2v2h-2z"/><path d="m13 57h2v2h-2z"/><path d="m56 27c3.859 0 7-3.141 7-7 0-3.537-2.637-6.47-6.048-6.936-.47-4.524-4.306-8.064-8.952-8.064-1.223 0-2.403.256-3.492.715-2.268-2.955-5.759-4.715-9.508-4.715-6.617 0-12 5.383-12 12 0 .027.004.052.005.079-1.505.216-2.856.906-3.894 1.921h-11.111c-2.757 0-5 2.243-5 5v33h-2v5c0 2.757 2.243 5 5 5h46c2.757 0 5-2.243 5-5v-5h-2v-26zm-32.8-11.916c.206 1.177.567 2.318 1.122 3.398l1.779-.914c-.731-1.422-1.101-2.959-1.101-4.568 0-5.514 4.486-10 10-10 3.028 0 5.857 1.376 7.749 3.703-.676.488-1.297 1.063-1.828 1.738l1.572 1.236c1.338-1.701 3.345-2.677 5.507-2.677 3.859 0 7 3.141 7 7v1h1c2.757 0 5 2.243 5 5s-2.243 5-5 5h-32c-2.757 0-5-2.243-5-5 0-2.472 1.808-4.516 4.2-4.916zm-6.12 5.916c.488 3.386 3.401 6 6.92 6h1v6h-14v14h22v-8h14v-12h2v22h-40v-28zm13.92 18v6h-18v-10h12v4zm-4-2v-10h18v10zm28 21c0 1.654-1.346 3-3 3h-46c-1.654 0-3-1.346-3-3v-3h17.22l.999 4h15.562l.999-4h17.22zm-32.719-3h13.439l-.501 2h-12.438zm30.719-2h-48v-33c0-1.654 1.346-3 3-3h9.685c-.297.622-.503 1.294-.605 2h-8.08c-1.103 0-2 .897-2 2v28c0 1.103.897 2 2 2h40c1.103 0 2-.897 2-2v-22h2z"/><path d="m33.675 16h12.649v1.999h-12.649z" transform="matrix(.317 -.949 .949 .317 11.213 49.563)"/><path d="m44.641 22.769 6.921-5.769-6.921-5.769-1.282 1.538 5.079 4.231-5.079 4.231z"/><path d="m36.641 21.231-5.079-4.231 5.079-4.231-1.282-1.538-6.921 5.769 6.921 5.769z"/><path d="m29 29h14v2h-14z"/><path d="m29 33h14v2h-14z"/><path d="m15 37h8v2h-8z"/><path d="m15 41h14v2h-14z"/><path d="m11 29h2v2h-2z"/><path d="m13 25h2v-2h-4v4h2z"/></svg>